<?xml version="1.0" encoding="UTF-8"?>
<svg id="Layer_2" data-name="Layer 2" xmlns="http://www.w3.org/2000/svg" viewBox="0 0 848.79 117.8">
  <defs>
    <style>
      .cls-1 {
        fill: #f0e6fc;
      }

      .cls-2 {
        fill: #151416;
      }

      .cls-3 {
        fill: #7c3aed;
      }
    </style>
  </defs>
  <g id="Layer_1-2" data-name="Layer 1">
    <g>
      <g>
        <g>
          <rect class="cls-2" x="59.73" y="3.83" width="51.71" height="51.55" rx="4.78" ry="4.78"/>
          <rect class="cls-2" y="63.39" width="51.71" height="51.88" rx="4.83" ry="4.83"/>
          <rect class="cls-3" x="59.73" y="63.39" width="51.71" height="51.88" rx="4.78" ry="4.78"/>
          <g>
            <rect class="cls-2" x="24.18" y="47.9" width="27.54" height="4.37"/>
            <polygon class="cls-2" points="0 12.66 6.3 18.96 19.67 32.33 6.3 45.71 0 52.01 12.69 52.39 12.84 52.25 26.21 38.87 32.75 32.33 26.21 25.79 12.84 12.42 12.69 12.28 0 12.66"/>
          </g>
        </g>
        <polygon class="cls-1" points="105.19 71.75 79.47 97.48 74.84 92.85 65.7 93.13 79.44 106.92 105.47 80.89 105.19 71.75"/>
      </g>
      <g>
        <path class="cls-2" d="M200.08,55.23c3.1-1.79,5.71-3.91,7.8-6.39,3.88-4.62,5.82-10.12,5.82-16.49,0-5.2-1.27-10.01-3.82-14.42-2.55-4.41-6.35-7.97-11.39-10.68-5.05-2.71-11.29-4.06-18.72-4.06h-45.25v112.02h45.89c7.97,0,14.74-1.46,20.32-4.38,5.58-2.92,9.82-6.8,12.75-11.63,2.92-4.83,4.38-10.22,4.38-16.17,0-7.54-2.26-14-6.77-19.36-2.89-3.43-6.55-6.23-10.98-8.43ZM177.2,20.88c4.46,0,8.05,1.12,10.76,3.35,2.71,2.23,4.06,5.63,4.06,10.2s-1.35,7.81-4.06,10.04-6.29,3.35-10.76,3.35h-21.19v-26.93h21.19ZM191.78,92.74c-2.92,3.19-6.99,4.78-12.19,4.78h-23.58v-32.19h23.58c3.5,0,6.51.72,9,2.15,2.5,1.43,4.38,3.37,5.66,5.82,1.28,2.45,1.91,5.15,1.91,8.13,0,4.36-1.46,8.13-4.38,11.31Z"/>
        <rect class="cls-2" x="228.03" width="20.87" height="115.21"/>
        <path class="cls-2" d="M319.73,41.83c-6.21-3.56-13.25-5.34-21.11-5.34s-14.61,1.78-20.88,5.34c-6.27,3.56-11.21,8.34-14.82,14.34-3.61,6-5.42,12.78-5.42,20.32s1.83,14.37,5.5,20.48c3.67,6.11,8.6,10.94,14.82,14.5,6.21,3.56,13.2,5.34,20.95,5.34s14.74-1.78,20.95-5.34c6.21-3.56,11.13-8.39,14.74-14.5,3.61-6.11,5.42-12.93,5.42-20.48s-1.81-14.31-5.42-20.32c-3.61-6-8.53-10.78-14.74-14.34ZM316.07,87.4c-1.65,3.13-3.98,5.58-7.01,7.33-3.03,1.75-6.51,2.63-10.44,2.63s-7.23-.88-10.2-2.63c-2.98-1.75-5.31-4.2-7.01-7.33-1.7-3.13-2.55-6.72-2.55-10.76s.85-7.59,2.55-10.68c1.7-3.08,4.04-5.5,7.01-7.25,2.97-1.75,6.37-2.63,10.2-2.63s7.38.88,10.36,2.63c2.97,1.75,5.31,4.17,7.01,7.25,1.7,3.08,2.55,6.64,2.55,10.68s-.82,7.62-2.47,10.76Z"/>
        <path class="cls-2" d="M394.31,95.53c-2.82,1.22-5.98,1.83-9.48,1.83-3.82,0-7.25-.88-10.28-2.63-3.03-1.75-5.42-4.2-7.17-7.33-1.75-3.13-2.63-6.72-2.63-10.76s.88-7.73,2.63-10.76c1.75-3.03,4.14-5.42,7.17-7.17,3.03-1.75,6.45-2.63,10.28-2.63,3.4,0,6.51.58,9.32,1.75,2.81,1.17,5.23,2.87,7.25,5.1l13.38-13.54c-3.72-4.14-8.13-7.33-13.23-9.56-5.1-2.23-10.68-3.35-16.73-3.35-7.76,0-14.79,1.78-21.11,5.34-6.32,3.56-11.29,8.37-14.9,14.42-3.61,6.05-5.42,12.91-5.42,20.56s1.81,14.34,5.42,20.4c3.61,6.05,8.55,10.83,14.82,14.34,6.27,3.51,13.33,5.26,21.19,5.26,6.05,0,11.63-1.12,16.73-3.35,5.1-2.23,9.61-5.47,13.54-9.72l-13.54-13.54c-2.02,2.34-4.44,4.12-7.25,5.34Z"/>
        <polygon class="cls-2" points="496.69 115.21 464.88 74.84 495.09 38.24 471.03 38.24 442.99 73.53 442.99 0 422.11 0 422.11 115.21 442.99 115.21 442.99 77.65 471.19 115.21 496.69 115.21"/>
      </g>
      <g>
        <polygon class="cls-3" points="585.71 19.33 585.71 5.62 495.68 5.62 495.68 19.33 533.29 19.33 533.29 116.21 548.27 116.21 548.27 19.33 585.71 19.33"/>
        <path class="cls-3" d="M624.59,40.92c-3.08-1.33-6.53-1.99-10.36-1.99-8.39,0-14.82,2.87-19.28,8.6-.45.58-.87,1.2-1.27,1.82v-8.83h-14.34v75.69h14.34v-43.18c0-6.9,1.7-12.06,5.1-15.46s7.75-5.1,13.07-5.1c2.55,0,4.78.37,6.69,1.12,1.91.74,3.67,1.97,5.26,3.67l9.4-9.72c-2.66-3.08-5.52-5.28-8.6-6.61Z"/>
        <rect class="cls-3" x="638.62" y="40.52" width="14.34" height="75.69"/>
        <path class="cls-3" d="M645.79,7.06c-2.66,0-4.83.88-6.53,2.63-1.7,1.75-2.55,3.9-2.55,6.45s.85,4.86,2.55,6.61c1.7,1.75,3.88,2.63,6.53,2.63s4.83-.88,6.53-2.63c1.7-1.75,2.55-3.96,2.55-6.61s-.85-4.7-2.55-6.45c-1.7-1.75-3.88-2.63-6.53-2.63Z"/>
        <polygon class="cls-3" points="699.82 93.86 676.54 40.52 660.61 40.52 695.34 116.21 703.79 116.21 738.53 40.52 723.23 40.52 699.82 93.86"/>
        <path class="cls-3" d="M753.35,7.06c-2.66,0-4.83.88-6.53,2.63-1.7,1.75-2.55,3.9-2.55,6.45s.85,4.86,2.55,6.61c1.7,1.75,3.88,2.63,6.53,2.63s4.83-.88,6.53-2.63c1.7-1.75,2.55-3.96,2.55-6.61s-.85-4.7-2.55-6.45c-1.7-1.75-3.88-2.63-6.53-2.63Z"/>
        <rect class="cls-3" x="746.17" y="40.52" width="14.34" height="75.69"/>
        <path class="cls-3" d="M834.29,40.52v10.29c-2.6-3.45-5.87-6.22-9.8-8.3-4.52-2.39-9.64-3.58-15.38-3.58-7.01,0-13.31,1.75-18.88,5.26-5.58,3.5-9.99,8.23-13.23,14.18-3.24,5.95-4.86,12.64-4.86,20.08s1.62,14.13,4.86,20.08c3.24,5.95,7.67,10.65,13.31,14.1,5.63,3.45,11.9,5.18,18.8,5.18,5.84,0,11.02-1.2,15.54-3.59,3.88-2.06,7.09-4.8,9.64-8.23v10.23h14.5V40.52h-14.5ZM828.72,97.01c-4.36,4.83-10.09,7.25-17.21,7.25-4.78,0-9.03-1.12-12.75-3.35-3.72-2.23-6.61-5.28-8.68-9.16-2.07-3.88-3.11-8.37-3.11-13.46s1.04-9.43,3.11-13.3c2.07-3.88,4.94-6.93,8.6-9.16,3.67-2.23,7.89-3.35,12.67-3.35s8.98,1.09,12.59,3.27c3.61,2.18,6.4,5.21,8.37,9.08,1.96,3.88,2.95,8.42,2.95,13.62,0,7.54-2.18,13.73-6.53,18.56Z"/>
      </g>
    </g>
  </g>
</svg>