<?xml version="1.0" encoding="UTF-8"?>
<svg id="Layer_2" data-name="Layer 2" xmlns="http://www.w3.org/2000/svg" viewBox="0 0 894.01 196.55">
  <defs>
    <style>
      .cls-1, .cls-2 {
        fill: #f0e6fc;
      }

      .cls-3 {
        font-family: Outfit-Light, Outfit;
        font-weight: 300;
      }

      .cls-3, .cls-2 {
        font-size: 159.35px;
      }

      .cls-3, .cls-4 {
        fill: #7c3aed;
      }

      .cls-2 {
        font-family: Outfit-SemiBold, Outfit;
        font-weight: 600;
      }
    </style>
  </defs>
  <g id="Layer_1-2" data-name="Layer 1">
    <g>
      <g>
        <g>
          <rect class="cls-1" x="59.67" y="24.39" width="51.66" height="51.5" rx="4.78" ry="4.78"/>
          <rect class="cls-1" y="83.89" width="51.66" height="51.83" rx="4.82" ry="4.82"/>
          <rect class="cls-4" x="59.67" y="83.89" width="51.66" height="51.83" rx="4.77" ry="4.77"/>
          <g>
            <rect class="cls-1" x="24.15" y="68.42" width="27.51" height="4.37"/>
            <polygon class="cls-1" points="0 33.21 6.29 39.51 19.65 52.87 6.29 66.23 0 72.52 12.68 72.9 12.83 72.76 26.19 59.4 32.72 52.87 26.19 46.33 12.83 32.97 12.68 32.83 0 33.21"/>
          </g>
        </g>
        <polygon class="cls-1" points="105.09 92.24 79.39 117.95 74.77 113.33 65.64 113.6 79.36 127.38 105.37 101.37 105.09 92.24"/>
      </g>
      <text class="cls-2" transform="translate(123.76 135.68)"><tspan x="0" y="0">Block</tspan></text>
      <text class="cls-3" transform="translate(505.21 135.68)"><tspan x="0" y="0">Trivia</tspan></text>
    </g>
  </g>
</svg>